<?xml version="1.0" standalone="no"?>
<!DOCTYPE svg PUBLIC "-//W3C//DTD SVG 20010904//EN"
 "http://www.w3.org/TR/2001/REC-SVG-20010904/DTD/svg10.dtd">
<svg version="1.0" xmlns="http://www.w3.org/2000/svg"
 width="858.000000pt" height="573.000000pt" viewBox="0 0 858.000000 573.000000"
 preserveAspectRatio="xMidYMid meet">

<g transform="translate(0.000000,573.000000) scale(0.100000,-0.100000)"
fill="#000000" stroke="none">
<path d="M4095 5352 c-290 -286 -998 -978 -1114 -1088 -63 -60 -120 -123 -127
-141 -11 -26 -14 -182 -14 -823 l0 -792 28 -28 c19 -19 43 -30 73 -35 24 -3
305 -5 624 -3 572 3 580 3 580 23 0 20 -8 20 -612 25 -571 5 -614 6 -630 23
-17 17 -18 63 -21 750 -2 403 0 757 3 787 7 55 7 55 138 186 141 139 888 870
1125 1099 135 131 166 175 125 175 -10 0 -90 -71 -178 -158z"/>
<path d="M4355 5210 c-3 -5 3 -26 13 -47 35 -69 70 -176 106 -318 21 -83 51
-170 73 -215 48 -95 135 -211 212 -282 32 -30 63 -63 68 -74 11 -21 46 -172
63 -274 7 -36 20 -85 31 -109 20 -45 24 -141 10 -191 -9 -28 -9 -29 -50 139
-35 140 -145 321 -248 406 -36 30 -136 91 -229 139 -154 81 -194 97 -194 78 0
-5 54 -75 119 -158 66 -82 139 -183 162 -224 131 -234 178 -292 342 -423 88
-71 97 -81 97 -111 0 -43 -42 -187 -83 -291 -51 -124 -446 -729 -472 -721 -27
8 -58 205 -41 270 3 13 40 61 81 106 152 166 189 234 291 534 37 108 41 136
21 136 -7 0 -87 -73 -179 -162 -220 -216 -239 -256 -253 -531 -4 -81 -11 -147
-15 -147 -13 0 -132 228 -151 291 -11 34 -22 84 -25 112 -6 50 -3 59 65 192
94 187 110 236 121 380 5 66 13 149 16 184 5 43 4 62 -3 60 -23 -9 -144 -170
-168 -224 -44 -98 -55 -162 -65 -371 -9 -169 -8 -212 5 -273 8 -40 15 -75 15
-79 0 -15 -112 162 -125 197 -7 20 -16 64 -19 96 -12 102 -47 267 -71 330 -28
76 -137 294 -181 363 -67 104 -78 55 -48 -225 24 -231 47 -286 179 -423 64
-66 86 -97 99 -136 9 -28 30 -72 46 -97 l29 -47 -58 40 c-32 22 -84 51 -115
65 -77 34 -427 118 -439 106 -21 -21 130 -172 237 -239 95 -60 278 -112 395
-112 62 0 102 -34 179 -149 54 -81 78 -132 128 -281 28 -79 45 -75 119 32 82
119 323 489 359 552 87 151 228 300 421 448 196 150 382 356 454 502 58 116
98 256 75 256 -4 0 -37 -28 -73 -62 -37 -35 -119 -100 -182 -145 -229 -162
-367 -336 -464 -583 -33 -85 -56 -130 -78 -150 -18 -17 -35 -30 -38 -30 -4 0
6 51 21 113 20 81 31 161 39 292 7 99 16 197 20 217 5 21 38 86 74 145 163
271 216 428 247 736 19 179 5 177 -122 -12 -161 -240 -235 -452 -253 -723 -4
-57 -8 -104 -10 -106 -6 -7 -66 340 -75 438 -23 248 -79 372 -269 593 -84 99
-200 207 -221 207 -5 0 -12 -4 -15 -10z m153 -162 c102 -106 164 -187 210
-275 45 -87 100 -251 108 -322 5 -44 3 -42 -54 66 -90 170 -221 358 -235 337
-3 -5 23 -52 58 -104 62 -94 211 -378 202 -387 -6 -6 -65 65 -140 169 -81 113
-124 206 -147 321 -16 81 -45 175 -75 250 -12 29 0 20 73 -55z m777 -245 c-21
-202 -66 -356 -160 -543 -46 -91 -125 -214 -133 -206 -2 2 7 24 19 47 12 24
42 104 66 179 25 74 56 161 69 192 27 65 29 72 13 62 -28 -17 -159 -354 -159
-408 0 -10 -3 -16 -7 -13 -30 30 42 319 117 472 50 100 164 285 176 285 3 0 3
-30 -1 -67z m-875 -462 c206 -106 298 -196 394 -388 27 -54 71 -201 63 -209
-3 -3 -16 19 -30 48 -13 29 -44 81 -68 115 -55 77 -159 196 -167 189 -2 -3 22
-43 56 -89 33 -45 88 -128 122 -182 34 -55 71 -108 81 -118 24 -23 26 -44 2
-26 -140 108 -221 205 -320 385 -45 82 -113 178 -205 288 -18 22 -28 37 -23
35 6 -2 48 -24 95 -48z m1280 -198 c-37 -113 -108 -213 -290 -407 -55 -59
-268 -236 -283 -236 -15 0 116 154 232 272 63 65 112 120 109 123 -15 16 -183
-136 -285 -258 -79 -95 -92 -97 -41 -8 89 156 218 301 353 396 39 27 101 75
139 107 38 32 71 56 74 54 2 -3 -2 -22 -8 -43z m-1924 -358 c85 -174 126 -297
136 -413 5 -51 5 -52 -16 -39 -28 18 -121 141 -152 199 -32 62 -50 147 -63
288 -14 145 -14 153 0 144 6 -4 49 -84 95 -179z m491 -59 c-7 -156 -18 -192
-101 -346 l-57 -105 6 125 c9 199 32 281 117 413 16 26 33 47 36 47 3 0 2 -60
-1 -134z m408 -293 c-9 -21 -34 -85 -56 -143 -22 -58 -57 -135 -79 -171 -40
-67 -129 -174 -137 -165 -3 3 24 57 61 121 36 63 66 120 66 126 0 39 -76 -61
-148 -194 -20 -38 -38 -62 -40 -54 -6 29 29 153 65 227 30 63 55 94 156 195
66 66 122 115 124 108 2 -6 -3 -28 -12 -50z m-940 -257 c90 -26 179 -78 314
-183 2 -2 1 -6 -3 -10 -9 -9 -57 8 -224 84 -79 35 -151 63 -160 61 -18 -4 -16
-5 163 -88 72 -33 121 -60 110 -60 -46 0 -194 43 -245 72 -57 31 -220 163
-220 177 0 8 170 -26 265 -53z"/>
<path d="M3760 3619 c0 -35 101 -251 108 -231 2 6 -18 58 -43 114 -41 91 -65
133 -65 117z"/>
<path d="M4162 3585 c-19 -42 -42 -145 -42 -190 1 -59 14 -27 39 93 23 108 24
144 3 97z"/>
<path d="M5750 3069 c0 -586 1 -620 18 -617 16 3 17 42 20 621 2 612 2 617
-18 617 -20 0 -20 -6 -20 -621z"/>
<path d="M2835 2017 c-62 -30 -90 -60 -104 -112 -12 -47 -1 -99 29 -137 10
-14 74 -54 141 -89 127 -66 159 -97 159 -149 0 -77 -93 -130 -190 -109 -28 6
-69 25 -94 44 l-44 35 -11 -32 c-9 -24 -8 -34 1 -40 102 -69 259 -72 349 -6
48 35 69 79 69 146 0 78 -25 106 -169 182 -162 85 -193 130 -135 199 49 58
136 63 226 13 50 -28 52 -28 62 4 6 18 -1 25 -46 45 -79 34 -178 37 -243 6z"/>
<path d="M4193 2028 c-10 -12 -263 -632 -263 -643 0 -3 13 -5 29 -5 27 0 31 6
68 98 l39 97 139 0 139 0 37 -95 38 -95 52 -3 c39 -2 50 0 46 10 -3 7 -57 148
-121 313 -64 165 -120 307 -125 315 -10 19 -65 25 -78 8z m76 -247 c28 -73 51
-137 51 -142 0 -5 -52 -9 -116 -9 -106 0 -116 1 -109 18 63 166 111 280 117
274 4 -4 30 -67 57 -141z"/>
<path d="M4895 2019 c-107 -37 -188 -118 -215 -215 -8 -26 -11 -79 -8 -132 5
-101 28 -154 95 -212 103 -90 281 -112 420 -50 43 19 45 22 39 52 -3 17 -8 33
-10 35 -2 3 -21 -6 -43 -20 -118 -74 -237 -63 -330 29 -61 60 -77 106 -76 211
1 159 111 273 263 273 36 0 65 -9 115 -36 37 -19 69 -34 70 -32 2 2 5 17 7 33
3 27 -2 32 -47 54 -72 35 -197 40 -280 10z"/>
<path d="M6009 2026 c-184 -49 -282 -238 -224 -432 69 -232 404 -298 585 -115
42 42 60 70 73 112 20 67 22 146 4 217 -44 168 -247 270 -438 218z m214 -57
c93 -47 128 -105 135 -225 6 -112 -15 -181 -74 -244 -46 -50 -109 -80 -165
-80 -51 0 -136 39 -172 79 -71 78 -93 234 -48 337 23 54 76 111 126 137 45 24
146 22 198 -4z"/>
<path d="M2137 2024 c-4 -4 -7 -151 -7 -326 l0 -318 195 0 195 0 0 30 0 30
-150 0 -151 0 3 128 3 127 133 3 132 3 0 24 0 25 -135 0 -135 0 0 110 0 110
146 0 145 0 -3 28 -3 27 -181 3 c-99 1 -183 -1 -187 -4z"/>
<path d="M3370 1706 l0 -326 45 0 45 0 0 135 0 135 73 0 c129 0 223 43 253
117 36 84 1 190 -76 233 -41 23 -57 25 -192 28 l-148 4 0 -326z m262 260 c49
-24 83 -90 73 -143 -15 -82 -77 -123 -185 -123 l-60 0 0 138 c0 76 3 142 8
146 12 13 125 1 164 -18z"/>
<path d="M5450 1705 l0 -325 45 0 45 0 0 325 0 325 -45 0 -45 0 0 -325z"/>
<path d="M2270 744 l0 -326 163 4 c158 4 164 4 227 35 72 35 93 52 132 104 57
75 73 239 33 335 -52 125 -175 173 -437 174 l-118 0 0 -326z m345 244 c91 -47
134 -120 135 -224 0 -181 -106 -287 -303 -301 l-87 -6 0 283 0 282 103 -4 c85
-3 110 -8 152 -30z"/>
<path d="M3056 1062 c-4 -3 -6 -149 -6 -324 l0 -318 195 0 195 0 0 25 0 25
-145 0 -145 0 0 130 0 130 130 0 130 0 0 25 0 25 -130 0 -130 0 0 116 0 116
138 -3 137 -4 3 31 3 30 -185 1 c-102 0 -187 -2 -190 -5z"/>
<path d="M4818 1063 l-38 -4 0 -320 0 -319 40 0 40 0 0 325 c0 179 -1 324 -2
323 -2 -1 -20 -3 -40 -5z"/>
<path d="M5110 745 l0 -325 30 0 30 0 2 246 3 247 188 -247 c182 -238 189
-246 222 -246 l35 0 0 320 0 320 -30 0 -30 0 -2 -247 -3 -247 -194 252 c-173
225 -197 252 -223 252 l-28 0 0 -325z"/>
<path d="M6038 1003 c-15 -37 -74 -184 -131 -325 l-104 -258 32 0 c31 0 34 3
55 63 13 34 31 78 41 97 l17 35 139 -3 138 -3 34 -94 33 -95 49 0 c27 0 49 4
49 9 0 8 -96 256 -208 541 l-38 95 -40 3 -39 3 -27 -68z m101 -168 c27 -72 53
-138 56 -147 7 -17 -3 -18 -113 -18 l-120 0 61 150 c33 83 61 149 63 147 2 -1
25 -61 53 -132z"/>
<path d="M3640 740 l0 -320 184 0 183 0 -5 25 -4 25 -129 0 -129 0 0 295 0
295 -50 0 -50 0 0 -320z"/>
<path d="M4190 740 l0 -320 45 0 45 0 0 150 0 150 140 0 140 0 0 25 0 24 -137
3 -138 3 -3 118 -3 117 151 0 150 0 0 25 0 25 -195 0 -195 0 0 -320z"/>
</g>
</svg>
